<?xml version="1.0" standalone="no"?>
<!DOCTYPE svg PUBLIC "-//W3C//DTD SVG 20010904//EN"
 "http://www.w3.org/TR/2001/REC-SVG-20010904/DTD/svg10.dtd">
<svg version="1.0" xmlns="http://www.w3.org/2000/svg"
 width="700.000000pt" height="700.000000pt" viewBox="0 0 700.000000 700.000000"
 preserveAspectRatio="xMidYMid meet">
<metadata>
Created by potrace 1.11, written by Peter Selinger 2001-2013
</metadata>
<g transform="translate(0.000000,700.000000) scale(0.100000,-0.100000)"
fill="#000000" stroke="none">
<path d="M3917 6835 c-135 -56 -258 -162 -304 -261 -22 -48 -24 -65 -22 -161
2 -103 -4 -152 -19 -154 -4 0 -16 -2 -26 -4 -20 -4 -135 -7 -188 -6 -26 1 -26
2 -27 79 -2 134 -13 181 -57 248 -71 106 -166 167 -281 180 -51 5 -64 3 -69
-9 -7 -19 -32 -25 -119 -28 -38 -1 -88 -7 -109 -12 -42 -11 -43 -8 18 -53 19
-13 14 -19 -77 -113 -53 -55 -97 -106 -97 -113 0 -7 13 -20 29 -29 29 -17 34
-29 46 -120 3 -26 21 -72 40 -104 19 -32 35 -63 35 -70 0 -7 -28 -27 -62 -45
-145 -76 -197 -105 -268 -149 -86 -52 -73 -43 -170 -120 -143 -113 -278 -256
-416 -441 -123 -165 -170 -260 -130 -260 24 0 20 -16 -19 -80 -40 -65 -44 -84
-16 -75 27 8 45 -19 37 -58 -6 -32 -59 -176 -77 -209 -15 -29 -10 -46 16 -52
30 -8 28 18 30 -336 1 -157 5 -295 8 -307 4 -13 9 -31 11 -40 52 -226 123
-388 234 -533 80 -105 106 -129 207 -195 108 -71 193 -112 360 -175 77 -29
146 -57 153 -63 21 -17 13 -38 -34 -91 -46 -51 -134 -174 -165 -231 -105 -195
-121 -236 -120 -294 0 -24 -15 -91 -34 -150 -48 -154 -52 -181 -50 -362 2
-176 8 -226 32 -276 15 -33 45 -52 51 -34 8 23 37 9 89 -40 34 -33 59 -49 69
-45 23 9 36 -9 113 -147 77 -139 97 -194 106 -282 4 -33 11 -78 17 -100 5 -22
11 -47 13 -55 2 -8 6 -27 10 -41 6 -23 1 -31 -28 -53 -18 -14 -39 -26 -46 -26
-22 0 -148 -135 -171 -184 -34 -71 -28 -188 7 -141 10 15 16 16 25 7 7 -7 20
-12 29 -12 11 0 19 -12 24 -37 8 -45 22 -73 35 -73 6 0 10 9 10 19 0 25 10 31
57 36 46 4 90 -13 122 -49 30 -32 36 -32 73 -1 28 24 36 25 153 25 119 0 125
-1 155 -27 24 -20 45 -27 83 -30 52 -3 87 -26 87 -58 0 -6 8 -20 19 -29 17
-16 19 -16 24 5 5 19 11 21 59 16 58 -5 128 -30 128 -46 0 -21 42 -23 60 -3
13 13 39 22 82 28 35 4 65 8 68 9 3 1 32 4 65 9 181 23 350 68 400 108 39 31
76 112 77 168 0 26 -9 85 -20 131 -36 145 -42 188 -42 272 0 131 20 157 164
209 33 11 78 37 101 59 49 45 100 143 116 222 8 37 22 68 40 88 16 18 30 37
31 43 0 6 2 16 3 21 1 6 5 62 9 125 4 63 10 123 12 135 6 31 6 204 0 257 -15
121 -76 329 -136 464 -36 79 -46 124 -30 134 8 5 10 18 6 33 -8 32 -108 167
-175 238 -28 29 -51 61 -51 70 0 19 30 35 150 79 295 108 567 301 696 495 84
125 169 340 198 501 41 223 36 561 -10 714 -17 54 -18 106 -3 116 6 3 27 8 48
9 20 1 37 3 39 4 2 0 -18 40 -43 88 -25 48 -45 92 -45 99 0 8 9 18 20 24 19
10 19 12 3 53 -46 117 -194 319 -342 468 -216 216 -483 403 -698 488 -18 8
-33 15 -33 17 0 2 21 38 47 81 47 77 47 79 47 163 0 47 -3 103 -6 125 -21 122
-21 125 1 125 30 0 26 17 -11 52 -63 59 -196 108 -294 108 -23 0 -56 3 -73 6
-31 6 -31 7 -16 30 28 42 16 44 -68 9z m-1377 -2210 c47 -2 176 -4 286 -4
l202 -1 10 -27 c61 -159 17 -363 -106 -487 -81 -83 -224 -138 -333 -130 -56 5
-148 35 -205 69 -79 46 -169 172 -189 264 -17 77 -6 211 22 289 l16 43 106 -6
c58 -4 144 -8 191 -10z m1135 -29 c266 -8 405 -15 415 -21 20 -13 33 -176 19
-249 -21 -116 -121 -252 -225 -308 -141 -75 -319 -75 -462 0 -90 48 -193 182
-221 289 -24 88 -19 191 12 265 l14 33 109 -1 c60 -1 213 -5 339 -8z"/>
<path d="M2704 4457 c-41 -18 -55 -77 -29 -126 24 -47 68 -54 110 -18 66 56
-3 179 -81 144z"/>
<path d="M3691 4391 c-35 -32 -40 -65 -16 -110 25 -49 65 -54 107 -14 35 34
38 81 6 117 -36 39 -61 41 -97 7z"/>
</g>
</svg>
